<svg xmlns="http://www.w3.org/2000/svg" viewBox="0 0 711.01 221.38"><defs><style>.cls-1,.cls-3,.cls-5{font-size:64px;}.cls-1{fill:#e30613;font-family:Silom;letter-spacing:-0.11em;}.cls-2{letter-spacing:-0.05em;}.cls-11,.cls-3{fill:#3c3c3b;}.cls-3{font-family:HiraginoSans-W4-83pv-RKSJ-H, Hiragino Sans;}.cls-4{letter-spacing:0.02em;}.cls-5{fill:#c6c6c6;font-family:HiraginoSans-W6-83pv-RKSJ-H, Hiragino Sans;letter-spacing:-0.01em;}.cls-13,.cls-6{fill:#9c9b9b;}.cls-7{fill:#575756;}.cls-8{fill:#706f6f;}.cls-9{fill:#b2b2b2;}.cls-10,.cls-12{fill:none;}.cls-10{stroke:#3c3c3b;stroke-width:12px;}.cls-10,.cls-12,.cls-13{stroke-miterlimit:10;}.cls-12{stroke:#777;stroke-width:3px;}.cls-13{stroke:#1d1d1b;stroke-width:4px;}</style></defs><title>stallningshyra</title><g id="Lager_11" data-name="Lager 11"><text class="cls-1" transform="translate(22.38 110.62) scale(1.16 1.31)">St<tspan class="cls-2" x="55.74" y="0">allnings</tspan></text></g><g id="Lager_3" data-name="Lager 3"><text class="cls-3" transform="translate(379.22 109.49) scale(1 1.31)"><tspan class="cls-4">h</tspan><tspan x="41.54" y="0">yra.se</tspan></text></g><g id="Lager_10" data-name="Lager 10"><text class="cls-5" transform="translate(95.64 56.32)">..</text></g><g id="Lager_8" data-name="Lager 8"><path class="cls-6" d="M47,319h614.5s43.07,14.92,54.64,7.42c22.54-14.59,31.83,7.88,31.83,7.88l-32.16-.79-55.38-4.1L303.8,328.09l-84.09,47.37.46-10.54,66.3-36.86-131.6-.38,61.61,37.24-.09,10.46-80.18-47.73-88-.48-8.77,26.94L37,353.57Z" transform="translate(-36.98 -185.99)"/></g><g id="Lager_12" data-name="Lager 12"><polygon class="cls-7" points="179.5 178.93 117.9 141.69 249.5 142.08 183.19 178.93 255.91 139.22 113.51 139.22 179.5 178.93"/><polygon class="cls-7" points="11.71 139.77 11.23 141.18 99.24 141.65 179.41 189.39 179.42 188.87 99.51 140.18 11.71 139.77"/><polygon class="cls-7" points="267.24 139.87 622.28 141.68 664.95 146.38 624.46 143.39 266.83 142.1 182.74 189.47 182.74 189.22 267.24 139.87"/></g><g id="Lager_9" data-name="Lager 9"><polygon class="cls-8" points="659.41 121.89 625.7 107.06 621.05 111.78 621.83 113.22 629.12 113.99 645.17 120.01 649.39 123.69 654.7 131.21 647.6 139.52 658.22 141.78 665.38 132.01 659.41 121.89"/></g><g id="Lager_4" data-name="Lager 4"><path class="cls-9" d="M175.25,316h87.17l29.15,57.72a5.82,5.82,0,0,1-4.15,2.65l-12.72,1.53L249.83,329l-62.58-.36-26.94,48.72-12-.94a8.33,8.33,0,0,1-4.68-2.66Z" transform="translate(-36.98 -185.99)"/></g><g id="Lager_13" data-name="Lager 13"><polygon class="cls-8" points="123.33 191.35 150.28 142.62 212.86 142.98 237.73 191.88 250.44 190.34 223.77 136.32 140.36 136.65 111.34 190.41 123.33 191.35"/></g><g id="Lager_7" data-name="Lager 7"><polygon class="cls-7" points="186.32 165.3 188.85 152.1 172.64 151.64 175.53 165.26 166.98 170.74 156.31 161.49 149.09 175.53 162.62 179.7 163.29 188 149.87 193.24 157 205.17 168.52 196.19 175.69 200.82 173.37 213.85 188.34 213.96 185.42 200.67 193.73 196.06 203.18 206.19 210.66 194.99 198.04 188.11 198.81 180.19 212.35 176.8 205.81 162.75 194.58 170.57 186.32 165.3"/><circle class="cls-10" cx="180.58" cy="183.02" r="32.36"/><circle class="cls-11" cx="180.84" cy="182.82" r="20.29"/><circle class="cls-12" cx="180.85" cy="183.02" r="18.53"/><circle class="cls-13" cx="180.85" cy="183.02" r="7.49"/></g></svg>